<svg id="Capa_1" enable-background="new 0 0 512 512" height="512" viewBox="0 0 512 512" width="512" xmlns="http://www.w3.org/2000/svg"><g><path d="m256 0-110 196 110 316 153.817-194.522c27.597-34.895 42.183-76.901 42.183-121.478 0-108.075-87.925-196-196-196z" fill="#ff2b59"/><path d="m60 196c0 44.577 14.587 86.584 42.184 121.479-.001-.001 153.816 194.521 153.816 194.521v-512c-108.075 0-196 87.925-196 196z" fill="#ff4e51"/><path d="m256 60-68 136 68 136c75.111 0 136-60.889 136-136s-60.889-136-136-136z" fill="#edeff3"/><path d="m120 196c0 75.111 60.889 136 136 136v-272c-75.111 0-136 60.889-136 136z" fill="#fff"/></g></svg>